<svg xmlns="http://www.w3.org/2000/svg" width="168" height="50" viewBox="0 0 168 50" fill="none">
  <path d="M44.3174 2.47C43.8144 1.7105 43.1314 1.0875 42.3294 0.6565C41.5274 0.2256 40.6314 0 39.7214 0H27.0254L34.0334 10.8134C34.5374 11.5717 35.2204 12.1933 36.0224 12.6229C36.8244 13.0525 37.7194 13.2768 38.6294 13.2756H51.3304L44.3174 2.47Z" fill="#EA1E30"/>
  <path d="M34.0413 19.0633C34.5443 18.304 35.2283 17.6811 36.0303 17.2502C36.8323 16.8192 37.7283 16.5936 38.6383 16.5933H51.3333L44.3253 27.4015C43.8223 28.1614 43.1393 28.7847 42.3363 29.2157C41.5343 29.6467 40.6383 29.872 39.7283 29.8715H27.0273L34.0413 19.0633Z" fill="#AAC237"/>
  <path d="M28.552 19.3494C29.246 18.2927 30.115 17.3624 31.122 16.5986H17.6399C16.73 16.599 15.8344 16.8247 15.0326 17.2556C14.2308 17.6866 13.5478 18.3094 13.0444 19.0686L0 39.1705H12.6992C13.6087 39.1715 14.5043 38.9472 15.3063 38.5177C16.1083 38.0881 16.7919 37.4665 17.296 36.7083L28.552 19.3494Z" fill="#086DB5"/>
  <path d="M60.6074 16.5996H65.8244C68.8414 16.5996 70.9484 17.5694 70.9484 20.9663C70.9484 24.0993 69.0694 25.4721 65.9394 25.4721H63.7454V29.8739H60.6114L60.6074 16.5996ZM63.7414 22.6264H65.4294C65.8084 22.6264 67.6824 22.7161 67.6824 21.0066C67.6824 19.249 66.2064 19.3166 65.0344 19.3166H63.7364L63.7414 22.6264Z" fill="#060707"/>
  <path d="M75.746 19.5246V21.7424H81.137V24.6635H75.75V26.9515H81.33V29.8739H72.626V16.5996H81.33V19.5246H75.746Z" fill="#060707"/>
  <path d="M101.958 29.8742H98.8252V19.5236H95.1992V16.5986H105.582V19.5236H101.957L101.958 29.8742Z" fill="#060707"/>
  <path d="M108.757 27.5693L107.924 29.8742H104.6L109.238 16.5986H112.654L117.197 29.8742H113.859L113.08 27.5693H108.757ZM110.944 20.7014H110.914L109.616 24.929H112.218L110.944 20.7014Z" fill="#060707"/>
  <path d="M120.211 16.5996H123.293L125.737 23.695L128.332 16.5996H131.447L133.264 29.8739H130.135L129.252 22.2338H129.221L126.331 29.8739H125.084L122.319 22.2338H122.29L121.283 29.8739H118.168L120.211 16.5996Z" fill="#060707"/>
  <path d="M138.424 16.5996H135.294V29.8739H138.424V16.5996Z" fill="#060707"/>
  <path d="M141.176 16.5996H144.308L150.042 24.7155H150.079V16.5996H153.205V29.8739H150.077L144.336 21.7437H144.307V29.8739H141.174L141.176 16.5996Z" fill="#060707"/>
  <path d="M158.957 27.5693L158.125 29.8742H154.801L159.436 16.5986H162.857L167.39 29.8742H164.051L163.272 27.5693H158.957ZM161.145 20.7014H161.113L159.821 24.929H162.417L161.145 20.7014Z" fill="#060707"/>
  <path d="M95.3165 29.8737H91.4375L87.6395 24.7842L87.1015 24.766H87.0695V29.8737H83.9395V16.5981H89.7795C90.3355 16.5353 90.8985 16.5968 91.4275 16.7783C91.9575 16.9597 92.4395 17.2566 92.8405 17.6475C93.2415 18.0384 93.5505 18.5135 93.7465 19.0386C93.9415 19.5637 94.0185 20.1256 93.9705 20.684C94.0215 21.5738 93.7445 22.4515 93.1935 23.1507C92.6415 23.8499 91.8525 24.3219 90.9765 24.4774L95.3165 29.8737ZM87.0695 22.5157H88.5355C89.5595 22.5157 90.7075 22.3051 90.7075 20.8608C90.7075 19.4165 89.5595 19.2098 88.5355 19.2098H87.0635L87.0695 22.5157Z" fill="#060707"/>
  <path d="M62.4492 45.3311V49.0049H61.084V39.958H62.6309C63.3887 39.958 63.9609 40.0107 64.3477 40.1162C64.7383 40.2217 65.082 40.4209 65.3789 40.7139C65.8984 41.2217 66.1582 41.8623 66.1582 42.6357C66.1582 43.4639 65.8809 44.1201 65.3262 44.6045C64.7715 45.0889 64.0234 45.3311 63.082 45.3311H62.4492ZM62.4492 44.0654H62.959C64.2129 44.0654 64.8398 43.583 64.8398 42.6182C64.8398 41.6846 64.1934 41.2178 62.9004 41.2178H62.4492V44.0654Z" fill="#EA1E30"/>
  <path d="M72.4509 46.8076H68.5779L67.5701 49.0049H66.0994L70.5759 39.3896L74.8943 49.0049H73.4002L72.4509 46.8076ZM71.8943 45.5244L70.5525 42.4482L69.1462 45.5244H71.8943Z" fill="#EA1E30"/>
  <path d="M78.2632 41.2412V49.0049H76.898V41.2412H74.8179V39.958H80.3374V41.2412H78.2632Z" fill="#EA1E30"/>
  <path d="M84.8606 45.1494L87.6614 49.0049H85.9915L83.4075 45.3018H83.1614V49.0049H81.7962V39.958H83.3958C84.5911 39.958 85.4544 40.1826 85.9856 40.6318C86.5716 41.1318 86.8645 41.792 86.8645 42.6123C86.8645 43.2529 86.6809 43.8037 86.3137 44.2646C85.9466 44.7256 85.4622 45.0205 84.8606 45.1494ZM83.1614 44.1123H83.595C84.888 44.1123 85.5345 43.6182 85.5345 42.6299C85.5345 41.7041 84.9055 41.2412 83.6477 41.2412H83.1614V44.1123Z" fill="#EA1E30"/>
  <path d="M94.5811 46.8076H90.708L89.7002 49.0049H88.2295L92.7061 39.3896L97.0245 49.0049H95.5303L94.5811 46.8076ZM94.0245 45.5244L92.6827 42.4482L91.2764 45.5244H94.0245Z" fill="#EA1E30"/>
  <path d="M102.344 49.0049V39.3428L108.942 46.2451V39.958H110.307V49.5557L103.71 42.6709V49.0049H102.344Z" fill="#EA1E30"/>
  <path d="M114.086 39.958V49.0049H112.721V39.958H114.086Z" fill="#EA1E30"/>
  <path d="M121.815 46.8076H117.941L116.934 49.0049H115.463L119.94 39.3896L124.258 49.0049H122.764L121.815 46.8076ZM121.258 45.5244L119.916 42.4482L118.51 45.5244H121.258Z" fill="#EA1E30"/>
  <path d="M129.877 44.2939H133.615V44.5928C133.615 45.2725 133.535 45.874 133.375 46.3975C133.219 46.8818 132.955 47.335 132.584 47.7568C131.744 48.7021 130.676 49.1748 129.379 49.1748C128.113 49.1748 127.029 48.7178 126.127 47.8037C125.224 46.8857 124.773 45.7842 124.773 44.499C124.773 43.1865 125.232 42.0732 126.15 41.1592C127.068 40.2412 128.185 39.7822 129.502 39.7822C130.209 39.7822 130.869 39.9268 131.482 40.2158C132.068 40.5049 132.644 40.9736 133.211 41.6221L132.238 42.5537C131.496 41.5654 130.592 41.0713 129.525 41.0713C128.568 41.0713 127.765 41.4014 127.117 42.0615C126.469 42.71 126.144 43.5225 126.144 44.499C126.144 45.5068 126.506 46.3369 127.228 46.9893C127.904 47.5947 128.637 47.8975 129.426 47.8975C130.098 47.8975 130.701 47.6709 131.236 47.2178C131.771 46.7607 132.07 46.2139 132.133 45.5771H129.877V44.2939Z" fill="#EA1E30"/>
  <path d="M140.482 46.8076H136.609L135.601 49.0049H134.13L138.607 39.3896L142.925 49.0049H141.431L140.482 46.8076ZM139.925 45.5244L138.584 42.4482L137.177 45.5244H139.925Z" fill="#EA1E30"/>
</svg>